<svg xmlns="http://www.w3.org/2000/svg" width="96" height="96" viewBox="0 0 96 96">
  <defs>
    <filter id="g" x="0" y="0" width="100%" height="100%">
      <feTurbulence type="fractalNoise" baseFrequency="0.7" numOctaves="2" stitchTiles="stitch"/>
      <feColorMatrix type="matrix" values="0 0 0 0 0  0 0 0 0 0  0 0 0 0 0  0.6 0.6 0.6 0 0"/>
    </filter>
  </defs>
  <rect width="96" height="96" filter="url(#g)" opacity="0.4"/>
  <g fill="#000000">
    <circle cx="10" cy="10" r="3"/>
    <circle cx="34" cy="10" r="1.7"/>
    <circle cx="58" cy="10" r="2.4"/>
    <circle cx="82" cy="10" r="1.5"/>
    <circle cx="10" cy="34" r="1.7"/>
    <circle cx="34" cy="34" r="3.2"/>
    <circle cx="58" cy="34" r="1.6"/>
    <circle cx="82" cy="34" r="2.7"/>
    <circle cx="10" cy="58" r="2.4"/>
    <circle cx="34" cy="58" r="1.6"/>
    <circle cx="58" cy="58" r="3"/>
    <circle cx="82" cy="58" r="1.8"/>
    <circle cx="10" cy="82" r="1.5"/>
    <circle cx="34" cy="82" r="2.7"/>
    <circle cx="58" cy="82" r="1.7"/>
    <circle cx="82" cy="82" r="2.4"/>
  </g>
  <g fill="#ffca28" opacity="0.45">
    <circle cx="34" cy="22" r="1.2"/>
    <circle cx="10" cy="46" r="1.4"/>
    <circle cx="58" cy="70" r="1.2"/>
    <circle cx="82" cy="46" r="1.3"/>
  </g>
</svg>
